<svg width="150" height="150" viewBox="0 0 150 150" fill="none" xmlns="http://www.w3.org/2000/svg">
<rect width="150" height="150" rx="75" fill="white"/>
<g clip-path="url(#clip0_4_199)">
<path d="M103.516 84.8959L105.927 63.8889H99.5779L90.8203 100.586L121.967 98.8096L124.519 89.2858L103.516 84.8959Z" fill="#FFA95F"/>
<path d="M99.1221 89.2858H92.7728L89.3703 101.984H117.942C119.695 101.984 121.497 100.563 121.967 98.8096H99.7447C97.9914 98.8096 96.951 97.3883 97.4207 95.635L99.1221 89.2858Z" fill="#FF8B5A"/>
<path d="M124.076 85.1864L118.709 81.3493L112.598 77.3682L118.656 70.2381L118.637 66.2282C118.63 64.8471 117.633 63.8889 116.201 63.8889H105.927L99.1223 89.2858H124.519L124.888 87.9086C125.187 86.7934 124.878 85.76 124.076 85.1864Z" fill="#FFC269"/>
<path d="M88.2727 60.7142H102.016C102.892 60.7142 103.413 61.425 103.178 62.3015L93.3955 98.8095L47.591 101.497C46.7145 101.497 46.3795 101.072 46.6145 100.195L55.3711 67.2851L88.2727 60.7142Z" fill="#E5646E"/>
<path d="M50.5385 98.8096C49.6617 98.8096 49.1416 98.0989 49.3765 97.2223L51.6953 88.5688C51.9373 87.6656 52.9095 87.1496 53.7781 87.4957C56.6619 88.6447 59.8008 89.286 63.0953 89.286C77.1215 89.286 88.4922 77.9155 88.4922 63.8891C88.4922 62.8115 88.4031 61.7567 88.2728 60.7145H57.5717C56.6949 60.7145 55.7939 61.425 55.559 62.3018L45.3513 100.397C45.1164 101.274 45.6367 101.984 46.5133 101.984H92.5449L93.3955 98.8098H50.5385V98.8096Z" fill="#DB4655"/>
<path d="M113.74 106.155C116.758 103.514 117.566 99.5002 115.544 97.1899C113.522 94.8796 109.436 95.1478 106.419 97.7889C103.401 100.43 102.593 104.444 104.615 106.754C106.637 109.064 110.723 108.796 113.74 106.155Z" fill="#5D5360"/>
<path d="M111.91 104.064C113.419 102.743 113.823 100.736 112.812 99.581C111.801 98.4258 109.758 98.5599 108.249 99.8804C106.74 101.201 106.336 103.208 107.347 104.363C108.358 105.518 110.401 105.384 111.91 104.064Z" fill="#DAD8DB"/>
<path d="M64.514 106.18C67.5318 103.539 68.3392 99.5255 66.3173 97.2152C64.2955 94.9049 60.21 95.1731 57.1922 97.8142C54.1743 100.455 53.367 104.469 55.3888 106.779C57.4107 109.09 61.4962 108.822 64.514 106.18Z" fill="#5D5360"/>
<path d="M62.6836 104.089C64.1926 102.768 64.5962 100.761 63.5852 99.6061C62.5743 98.451 60.5315 98.585 59.0226 99.9056C57.5137 101.226 57.11 103.233 58.121 104.388C59.132 105.543 61.1747 105.409 62.6836 104.089Z" fill="#DAD8DB"/>
<path d="M118.656 70.238H110.575L107.764 73.4126L108.862 80.3222L118.709 78.1746L118.656 70.238Z" fill="#DBEAFF"/>
<path d="M111.623 78.1746C109.87 78.1746 108.829 76.7533 109.299 75L110.575 70.238C108.822 70.238 107.02 71.6593 106.55 73.4126L105.274 78.1746C104.804 79.9279 105.845 81.3492 107.598 81.3492H118.709L118.694 78.1746H111.623Z" fill="#C3DDFF"/>
<path d="M63.0953 86.1112C75.3683 86.1112 85.3176 76.1619 85.3176 63.8889C85.3176 51.6159 75.3683 41.6666 63.0953 41.6666C50.8223 41.6666 40.873 51.6159 40.873 63.8889C40.873 76.1619 50.8223 86.1112 63.0953 86.1112Z" fill="#ECEAEC"/>
<path d="M63.0953 82.9365C73.6151 82.9365 82.143 74.4086 82.143 63.8888C82.143 53.3691 73.6151 44.8412 63.0953 44.8412C52.5756 44.8412 44.0477 53.3691 44.0477 63.8888C44.0477 74.4086 52.5756 82.9365 63.0953 82.9365Z" fill="white"/>
<path d="M63.0953 51.1904C62.218 51.1904 61.508 50.4796 61.508 49.6031V48.0158C61.508 47.1392 62.218 46.4285 63.0953 46.4285C63.9726 46.4285 64.6826 47.1392 64.6826 48.0158V49.6031C64.6826 50.4796 63.9726 51.1904 63.0953 51.1904Z" fill="#C8C5C9"/>
<path d="M63.0953 81.3492C62.218 81.3492 61.508 80.6385 61.508 79.7619V78.1746C61.508 77.298 62.218 76.5873 63.0953 76.5873C63.9726 76.5873 64.6826 77.298 64.6826 78.1746V79.7619C64.6826 80.6385 63.9726 81.3492 63.0953 81.3492Z" fill="#C8C5C9"/>
<path d="M78.9681 65.4761H77.3808C76.5035 65.4761 75.7935 64.7654 75.7935 63.8888C75.7935 63.0123 76.5035 62.3015 77.3808 62.3015H78.9681C79.8455 62.3015 80.5554 63.0123 80.5554 63.8888C80.5554 64.7654 79.8457 65.4761 78.9681 65.4761Z" fill="#C8C5C9"/>
<path d="M48.8096 65.4761H47.2223C46.3449 65.4761 45.6349 64.7654 45.6349 63.8888C45.6349 63.0123 46.3449 62.3015 47.2223 62.3015H48.8096C49.6869 62.3015 50.3969 63.0123 50.3969 63.8888C50.3969 64.7654 49.6869 65.4761 48.8096 65.4761Z" fill="#C8C5C9"/>
<path d="M42.4604 86.1111H26.5873C25.71 86.1111 25 85.4004 25 84.5238C25 83.6473 25.71 82.9365 26.5873 82.9365H42.4604C43.3377 82.9365 44.0477 83.6473 44.0477 84.5238C44.0477 85.4004 43.3377 86.1111 42.4604 86.1111Z" fill="#F9EAC7"/>
<path d="M40.873 92.4604H31.3492C30.4719 92.4604 29.7619 91.7496 29.7619 90.8731C29.7619 89.9965 30.4719 89.2858 31.3492 89.2858H40.873C41.7504 89.2858 42.4603 89.9965 42.4603 90.8731C42.4603 91.7496 41.7504 92.4604 40.873 92.4604Z" fill="#F9EAC7"/>
<path d="M39.2857 98.8096H36.1111C35.2338 98.8096 34.5238 98.0989 34.5238 97.2223C34.5238 96.3458 35.2338 95.635 36.1111 95.635H39.2857C40.1631 95.635 40.873 96.3458 40.873 97.2223C40.873 98.0989 40.1631 98.8096 39.2857 98.8096Z" fill="#F9EAC7"/>
<path d="M58.3334 70.2381C57.9273 70.2381 57.5211 70.083 57.2111 69.773C56.591 69.1529 56.591 68.1486 57.2111 67.5285L72.2904 52.4492C72.9105 51.8291 73.9148 51.8291 74.5349 52.4492C75.1551 53.0693 75.1551 54.0736 74.5349 54.6938L59.4556 69.773C59.1455 70.083 58.7394 70.2381 58.3334 70.2381Z" fill="#E5646E"/>
<path d="M63.0953 67.0635C64.8486 67.0635 66.2699 65.6421 66.2699 63.8888C66.2699 62.1356 64.8486 60.7142 63.0953 60.7142C61.342 60.7142 59.9207 62.1356 59.9207 63.8888C59.9207 65.6421 61.342 67.0635 63.0953 67.0635Z" fill="#5D5360"/>
</g>
<defs>
<clipPath id="clip0_4_199">
<rect width="100" height="100" fill="white" transform="translate(25 25)"/>
</clipPath>
</defs>
</svg>
