<svg id="Layer_1" data-name="Layer 1" xmlns="http://www.w3.org/2000/svg" width="48.08" height="43.26" viewBox="0 0 48.08 43.26"><defs><style>.cls-1{fill:#1c9947;}.cls-2{fill:#88c057;}</style></defs><title>favicon</title><path class="cls-1" d="M52.9,24.27a.8.8,0,0,0-1.1-.3c-2.2,1.5-7.7,3.2-7.7,3.2-19.6,5-11.3,26.3-11.3,26.3,9.5.8,18.5-1.2,22.2-11.3C57.8,34.17,54.2,26.57,52.9,24.27Z" transform="translate(-7.96 -10.37)"/><path class="cls-2" d="M32.7,53.47c0-1,3.5-14.3,15.6-20.7C48.3,32.77,37.1,42.77,32.7,53.47Z" transform="translate(-7.96 -10.37)"/><path class="cls-2" d="M16,10.67a1,1,0,0,1,1.4,0c2.4,2.5,8.8,6.4,8.8,6.4,23.2,12.1,6.5,36.5,6.5,36.5-12.3-1.7-23-6.9-24.6-20.8C6.9,21.77,13.6,13.27,16,10.67Z" transform="translate(-7.96 -10.37)"/><path class="cls-1" d="M32.8,53.47c.3-1.3-.2-19.1-13.5-30.7C19.2,22.67,30.4,38.67,32.8,53.47Z" transform="translate(-7.96 -10.37)"/></svg>