<svg width="150" height="150" viewBox="0 0 150 150" fill="none" xmlns="http://www.w3.org/2000/svg">
<rect width="150" height="150" rx="75" fill="white"/>
<path d="M33.9171 47.4554L36.875 44.4976V68.85C36.875 69.2644 37.0396 69.6618 37.3326 69.9548C37.6256 70.2479 38.0231 70.4125 38.4375 70.4125C38.8519 70.4125 39.2493 70.2479 39.5423 69.9548C39.8353 69.6618 40 69.2644 40 68.85V40.7257C40 40.4167 39.9083 40.1146 39.7367 39.8577C39.565 39.6007 39.321 39.4005 39.0355 39.2822C38.75 39.164 38.4358 39.1331 38.1327 39.1934C37.8296 39.2537 37.5513 39.4025 37.3328 39.6211L31.7078 45.2461C31.4179 45.5397 31.256 45.9361 31.2573 46.3486C31.2587 46.7612 31.4232 47.1565 31.7149 47.4483C32.0067 47.74 32.402 47.9045 32.8146 47.9059C33.2271 47.9072 33.6235 47.7453 33.9171 47.4554Z" fill="#39B54A"/>
<path d="M48.7498 70.4124H56.2493C57.9063 70.4105 59.4949 69.7515 60.6665 68.5798C61.8382 67.4081 62.4973 65.8196 62.4992 64.1626V45.4131C62.4973 43.7561 61.8382 42.1675 60.6665 40.9958C59.4949 39.8242 57.9063 39.1651 56.2493 39.1632H48.7498C47.0929 39.1651 45.5043 39.8242 44.3326 40.9958C43.161 42.1675 42.5019 43.7561 42.5 45.4131V64.1625C42.5019 65.8195 43.1609 67.4081 44.3326 68.5798C45.5043 69.7515 47.0928 70.4105 48.7498 70.4124ZM45.625 45.4131C45.6258 44.5845 45.9553 43.7902 46.5412 43.2043C47.127 42.6185 47.9214 42.289 48.7499 42.2881H56.2494C57.0779 42.2889 57.8723 42.6184 58.4581 43.2043C59.044 43.7902 59.3735 44.5845 59.3743 45.4131V64.1625C59.3735 64.9911 59.044 65.7854 58.4581 66.3713C57.8722 66.9571 57.0779 67.2866 56.2493 67.2874H48.7498C47.9213 67.2866 47.127 66.9571 46.5412 66.3712C45.9553 65.7854 45.6258 64.991 45.625 64.1625V45.4131Z" fill="#39B54A"/>
<path d="M71.249 70.4124H78.7485C80.4055 70.4105 81.9941 69.7515 83.1657 68.5798C84.3374 67.4081 84.9965 65.8195 84.9983 64.1625V45.4131C84.9965 43.7561 84.3374 42.1675 83.1657 40.9958C81.9941 39.8242 80.4055 39.1651 78.7485 39.1632H71.249C69.592 39.1651 68.0034 39.8242 66.8318 40.9958C65.6601 42.1675 65.001 43.7561 64.9991 45.4131V64.1625C65.001 65.8195 65.6601 67.4081 66.8318 68.5798C68.0034 69.7515 69.592 70.4105 71.249 70.4124ZM68.1241 45.4131C68.1249 44.5845 68.4544 43.7902 69.0402 43.2043C69.6261 42.6184 70.4205 42.2889 71.249 42.2881H78.7485C79.577 42.2889 80.3714 42.6184 80.9573 43.2043C81.5431 43.7901 81.8727 44.5845 81.8735 45.4131V64.1625C81.8727 64.9911 81.5431 65.7855 80.9573 66.3713C80.3714 66.9572 79.577 67.2867 78.7485 67.2875H71.249C70.4205 67.2866 69.6261 66.9571 69.0402 66.3713C68.4544 65.7854 68.1249 64.9911 68.1241 64.1625V45.4131Z" fill="#39B54A"/>
<path d="M95.3932 70.2476C95.7639 70.4328 96.1929 70.4632 96.5861 70.3322C96.9792 70.2011 97.3042 69.9194 97.4897 69.5488L111.552 41.4245C111.644 41.2409 111.7 41.0408 111.715 40.8357C111.73 40.6306 111.705 40.4245 111.64 40.2292C111.575 40.034 111.473 39.8534 111.338 39.6979C111.203 39.5424 111.039 39.415 110.855 39.3231C110.671 39.2311 110.471 39.1763 110.266 39.1619C110.061 39.1475 109.855 39.1738 109.66 39.2392C109.465 39.3045 109.285 39.4078 109.13 39.543C108.975 39.6781 108.848 39.8426 108.756 40.0269L94.6943 68.1511C94.6025 68.3347 94.5478 68.5345 94.5332 68.7392C94.5187 68.9439 94.5446 69.1494 94.6095 69.3441C94.6744 69.5388 94.777 69.7188 94.9114 69.8738C95.0459 70.0288 95.2096 70.1559 95.3932 70.2476Z" fill="#39B54A"/>
<path d="M93.2796 54.944C94.423 54.944 95.5407 54.6049 96.4913 53.9697C97.442 53.3344 98.183 52.4315 98.6205 51.3752C99.0581 50.3188 99.1725 49.1565 98.9495 48.0351C98.7264 46.9136 98.1758 45.8836 97.3673 45.0751C96.5588 44.2666 95.5287 43.716 94.4073 43.4929C93.2859 43.2699 92.1235 43.3843 91.0672 43.8219C90.0108 44.2594 89.108 45.0004 88.4727 45.9511C87.8375 46.9018 87.4984 48.0195 87.4984 49.1629C87.5002 50.6956 88.1099 52.165 89.1937 53.2487C90.2775 54.3325 91.7469 54.9422 93.2796 54.944Z" fill="#39B54A"/>
<path d="M112.967 66.1937C116.16 66.1937 118.748 63.6054 118.748 60.4125C118.748 57.2196 116.16 54.6312 112.967 54.6312C109.774 54.6312 107.186 57.2196 107.186 60.4125C107.186 63.6054 109.774 66.1937 112.967 66.1937Z" fill="#39B54A"/>
<path d="M116.491 75.2586C114.304 76.3365 109.04 76.0867 103.962 75.8366C97.2291 75.5086 90.2618 75.1492 86.075 77.2895C79.3262 80.7264 79.5762 90.5216 79.8573 93.8957C84.6237 89.1609 89.5004 86.5801 97.5572 84.8507C97.7605 84.8129 97.9692 84.8159 98.1713 84.8595C98.3734 84.9031 98.5648 84.9863 98.7345 85.1044C98.9042 85.2225 99.0487 85.3732 99.1597 85.5476C99.2707 85.722 99.346 85.9167 99.3811 86.1204C99.4163 86.3242 99.4107 86.5328 99.3646 86.7344C99.3185 86.9359 99.2328 87.1263 99.1126 87.2944C98.9923 87.4626 98.8399 87.6052 98.6641 87.714C98.4883 87.8228 98.2926 87.8956 98.0885 87.9282C92.8818 88.8219 87.992 91.0381 83.888 94.3646C80.2486 97.3788 77.2296 101.072 74.9989 105.238C72.7316 100.767 69.4651 96.879 65.4528 93.8745C61.4405 90.87 56.7902 88.83 51.8623 87.9126C51.6583 87.8778 51.4632 87.8028 51.2885 87.6918C51.1137 87.5808 50.9629 87.4361 50.8447 87.2662C50.7265 87.0963 50.6433 86.9045 50.6001 86.7021C50.5568 86.4996 50.5543 86.2906 50.5927 86.0872C50.6311 85.8838 50.7096 85.6901 50.8237 85.5174C50.9378 85.3447 51.0852 85.1964 51.2572 85.0813C51.4292 84.9662 51.6224 84.8865 51.8256 84.8468C52.0287 84.8072 52.2378 84.8084 52.4404 84.8504C60.4956 86.5792 65.3748 89.1614 70.1404 93.8957C70.4215 90.5215 70.6714 80.7262 63.9226 77.2898C57.5125 73.5127 40.3252 77.6578 33.5063 75.2585C33.2367 75.1321 32.9367 75.0849 32.6412 75.1226C32.3458 75.1602 32.0672 75.2811 31.8379 75.4711C31.6086 75.6611 31.438 75.9124 31.3461 76.1957C31.2543 76.4789 31.2448 76.7825 31.3189 77.0709C35.6019 91.8385 42.2852 100.127 54.6587 100.535C58.3592 100.471 62.009 99.6636 65.3911 98.1606C69.1841 101.157 72.0097 105.205 73.5146 109.799C73.6256 110.103 73.8275 110.366 74.093 110.552C74.3585 110.738 74.6747 110.838 74.9988 110.838C75.3228 110.838 75.639 110.738 75.9045 110.552C76.1701 110.367 76.372 110.104 76.483 109.799C77.9919 105.207 80.8168 101.16 84.6065 98.1606C87.9863 99.6709 91.6376 100.479 95.3391 100.536C107.711 100.128 114.398 91.838 118.678 77.0708C118.753 76.7824 118.743 76.4789 118.651 76.1957C118.559 75.9124 118.389 75.6611 118.16 75.4711C117.93 75.2812 117.652 75.1603 117.356 75.1227C117.061 75.085 116.761 75.1322 116.491 75.2586Z" fill="#39B54A"/>
</svg>
