<svg width="155" height="61" viewBox="0 0 155 61" fill="none" xmlns="http://www.w3.org/2000/svg">
<path d="M32.2326 21.9V5.46H36.0426V12.51H35.7726C35.7726 10.83 35.9826 9.43 36.4026 8.31C36.8426 7.19 37.5026 6.35 38.3826 5.79C39.2626 5.23 40.3326 4.95 41.5926 4.95H41.8026C43.7226 4.95 45.1826 5.58 46.1826 6.84C47.2026 8.08 47.7126 9.97 47.7126 12.51V21.9H42.9126V12.24C42.9126 11.36 42.6526 10.64 42.1326 10.08C41.6126 9.52 40.9126 9.24 40.0326 9.24C39.1326 9.24 38.4026 9.53 37.8426 10.11C37.3026 10.67 37.0326 11.41 37.0326 12.33V21.9H32.2326Z" fill="white"/>
<path d="M61.7329 21.9V17.04H60.9229V11.76C60.9229 10.92 60.7229 10.29 60.3229 9.87C59.9229 9.45 59.2829 9.24 58.4029 9.24C57.9629 9.24 57.3829 9.25 56.6629 9.27C55.9429 9.29 55.2029 9.32 54.4429 9.36C53.6829 9.4 52.9929 9.44 52.3729 9.48V5.43C52.8329 5.39 53.3729 5.35 53.9929 5.31C54.6129 5.27 55.2529 5.24 55.9129 5.22C56.5729 5.2 57.1929 5.19 57.7729 5.19C59.4529 5.19 60.8629 5.43 62.0029 5.91C63.1629 6.39 64.0429 7.12 64.6429 8.1C65.2429 9.06 65.5429 10.3 65.5429 11.82V21.9H61.7329ZM56.4829 22.32C55.3029 22.32 54.2629 22.11 53.3629 21.69C52.4829 21.27 51.7929 20.67 51.2929 19.89C50.7929 19.09 50.5429 18.14 50.5429 17.04C50.5429 15.84 50.8529 14.86 51.4729 14.1C52.0929 13.32 52.9629 12.75 54.0829 12.39C55.2029 12.01 56.4929 11.82 57.9529 11.82H61.4629V14.49H57.9229C57.0829 14.49 56.4329 14.7 55.9729 15.12C55.5329 15.52 55.3129 16.07 55.3129 16.77C55.3129 17.43 55.5329 17.97 55.9729 18.39C56.4329 18.79 57.0829 18.99 57.9229 18.99C58.4629 18.99 58.9429 18.9 59.3629 18.72C59.8029 18.52 60.1629 18.19 60.4429 17.73C60.7229 17.27 60.8829 16.63 60.9229 15.81L62.0629 17.01C61.9629 18.15 61.6829 19.11 61.2229 19.89C60.7829 20.67 60.1629 21.27 59.3629 21.69C58.5829 22.11 57.6229 22.32 56.4829 22.32Z" fill="white"/>
<path d="M77.0854 22.11C75.4254 22.11 74.0854 21.91 73.0654 21.51C72.0454 21.09 71.2954 20.4 70.8154 19.44C70.3554 18.46 70.1254 17.14 70.1254 15.48V1.02H74.5954V15.66C74.5954 16.44 74.7954 17.04 75.1954 17.46C75.6154 17.86 76.2054 18.06 76.9654 18.06H79.3954V22.11H77.0854ZM67.6354 8.97V5.46H79.3954V8.97H67.6354Z" fill="white"/>
<path d="M88.1732 22.41C86.2732 22.41 84.8132 21.8 83.7932 20.58C82.7732 19.34 82.2632 17.48 82.2632 15V5.46H87.0632V15.24C87.0632 16.12 87.3132 16.82 87.8132 17.34C88.3132 17.86 88.9832 18.12 89.8232 18.12C90.6832 18.12 91.3832 17.85 91.9232 17.31C92.4632 16.77 92.7332 16.04 92.7332 15.12V5.46H97.5332V21.9H93.7232V14.97H94.0532C94.0532 16.63 93.8332 18.02 93.3932 19.14C92.9732 20.24 92.3432 21.06 91.5032 21.6C90.6632 22.14 89.6232 22.41 88.3832 22.41H88.1732Z" fill="white"/>
<path d="M101.959 21.9V5.46H105.769V12.51H105.679C105.679 10.19 106.169 8.4 107.149 7.14C108.149 5.88 109.589 5.25 111.469 5.25H112.099V9.39H110.899C109.579 9.39 108.559 9.75 107.839 10.47C107.119 11.17 106.759 12.19 106.759 13.53V21.9H101.959Z" fill="white"/>
<path d="M122.028 22.47C120.628 22.47 119.388 22.23 118.308 21.75C117.248 21.27 116.358 20.63 115.638 19.83C114.938 19.01 114.398 18.1 114.018 17.1C113.658 16.08 113.478 15.04 113.478 13.98V13.38C113.478 12.28 113.658 11.23 114.018 10.23C114.398 9.21 114.938 8.3 115.638 7.5C116.338 6.7 117.208 6.07 118.248 5.61C119.308 5.13 120.508 4.89 121.848 4.89C123.608 4.89 125.088 5.29 126.288 6.09C127.508 6.87 128.438 7.9 129.078 9.18C129.718 10.44 130.038 11.82 130.038 13.32V14.94H115.488V12.21H127.128L125.568 13.47C125.568 12.49 125.428 11.65 125.148 10.95C124.868 10.25 124.448 9.72 123.888 9.36C123.348 8.98 122.668 8.79 121.848 8.79C121.008 8.79 120.298 8.98 119.718 9.36C119.138 9.74 118.698 10.3 118.398 11.04C118.098 11.76 117.948 12.65 117.948 13.71C117.948 14.69 118.088 15.55 118.368 16.29C118.648 17.01 119.088 17.57 119.688 17.97C120.288 18.37 121.068 18.57 122.028 18.57C122.908 18.57 123.628 18.4 124.188 18.06C124.748 17.72 125.128 17.3 125.328 16.8H129.738C129.498 17.9 129.028 18.88 128.328 19.74C127.628 20.6 126.748 21.27 125.688 21.75C124.628 22.23 123.408 22.47 122.028 22.47Z" fill="white"/>
<path d="M132.01 9.27V0H136.36V9.27H132.01Z" fill="white"/>
<path d="M145.523 22.41C143.183 22.41 141.353 21.93 140.033 20.97C138.713 20.01 138.013 18.66 137.933 16.92H142.193C142.273 17.44 142.583 17.91 143.123 18.33C143.683 18.73 144.513 18.93 145.613 18.93C146.453 18.93 147.143 18.79 147.683 18.51C148.243 18.21 148.523 17.79 148.523 17.25C148.523 16.77 148.313 16.39 147.893 16.11C147.473 15.81 146.723 15.6 145.643 15.48L144.353 15.36C142.373 15.16 140.883 14.61 139.883 13.71C138.903 12.81 138.413 11.66 138.413 10.26C138.413 9.1 138.703 8.13 139.283 7.35C139.863 6.57 140.663 5.98 141.683 5.58C142.723 5.18 143.903 4.98 145.223 4.98C147.343 4.98 149.053 5.45 150.353 6.39C151.653 7.31 152.333 8.65 152.393 10.41H148.133C148.053 9.87 147.773 9.42 147.293 9.06C146.813 8.68 146.103 8.49 145.163 8.49C144.423 8.49 143.833 8.63 143.393 8.91C142.953 9.19 142.733 9.57 142.733 10.05C142.733 10.51 142.923 10.86 143.303 11.1C143.683 11.34 144.303 11.51 145.163 11.61L146.453 11.73C148.473 11.95 150.043 12.51 151.163 13.41C152.283 14.31 152.843 15.52 152.843 17.04C152.843 18.14 152.543 19.1 151.943 19.92C151.343 20.72 150.493 21.34 149.393 21.78C148.293 22.2 147.003 22.41 145.523 22.41Z" fill="white"/>
<path d="M44.9426 31.2C44.7426 30.8 44.2426 30.7 43.8426 30.9C41.6426 32.4 36.1426 34.1 36.1426 34.1C16.5426 39.1 24.8426 60.4 24.8426 60.4C34.3426 61.2 43.3426 59.2 47.0426 49.1C49.8426 41.1 46.2426 33.5 44.9426 31.2Z" fill="white"/>
<path d="M24.7426 60.4C24.7426 59.4 28.2426 46.1 40.3426 39.7C40.3426 39.7 29.1426 49.7 24.7426 60.4Z" fill="#88C057"/>
<path d="M8.04259 17.6C8.44259 17.2 9.04259 17.2 9.44259 17.6C11.8426 20.1 18.2426 24 18.2426 24C41.4426 36.1 24.7426 60.5 24.7426 60.5C12.4426 58.8 1.74259 53.6 0.142588 39.7C-1.05741 28.7 5.64259 20.2 8.04259 17.6Z" fill="#88C057"/>
<path d="M24.8426 60.4C25.1426 59.1 24.6426 41.3 11.3426 29.7C11.2426 29.6 22.4426 45.6 24.8426 60.4Z" fill="white"/>
<path d="M56.0426 55.9V33.8011H58.295V40.7559L57.7615 40.6957C57.8603 38.9695 58.2159 37.5645 58.8284 36.4806C59.4607 35.3767 60.2806 34.5638 61.2882 34.0419C62.2959 33.5201 63.3924 33.2591 64.5779 33.2591C65.7238 33.2591 66.7611 33.4799 67.6897 33.9215C68.6381 34.3631 69.4481 34.9652 70.1199 35.728C70.7916 36.4907 71.3053 37.3738 71.661 38.3774C72.0166 39.381 72.1944 40.4448 72.1944 41.5688V42.1108C72.1944 43.2348 72.0067 44.2986 71.6313 45.3022C71.256 46.3057 70.7225 47.1889 70.031 47.9516C69.3592 48.7143 68.5492 49.3165 67.6008 49.7581C66.6722 50.1996 65.6448 50.4204 64.5186 50.4204C63.3924 50.4204 62.3156 50.1695 61.2882 49.6677C60.2608 49.1659 59.4113 48.353 58.7395 47.229C58.0677 46.105 57.6825 44.6297 57.5837 42.8032L58.8877 45.2118V55.9H56.0426ZM64.0741 47.8914C65.141 47.8914 66.0696 47.6405 66.8599 47.1387C67.6502 46.6168 68.2627 45.9043 68.6973 45.0011C69.132 44.0778 69.3493 43.024 69.3493 41.8398C69.3493 40.6355 69.132 39.5817 68.6973 38.6785C68.2627 37.7753 67.6502 37.0728 66.8599 36.571C66.0696 36.0491 65.141 35.7882 64.0741 35.7882C63.1257 35.7882 62.2465 36.009 61.4364 36.4505C60.6264 36.872 59.9744 37.4943 59.4804 38.3172C59.0062 39.1201 58.7691 40.0936 58.7691 41.2376V42.6226C58.7691 43.7265 59.0161 44.6699 59.51 45.4527C60.004 46.2355 60.656 46.8376 61.4661 47.2591C62.2761 47.6806 63.1455 47.8914 64.0741 47.8914Z" fill="white"/>
<path d="M76.6533 49.8785V27.9H79.4984V49.8785H76.6533ZM74.4602 30.1882V27.9H79.4984V30.1882H74.4602Z" fill="white"/>
<path d="M94.528 49.8785V45.0613H94.0538V39.4914C94.0538 38.3875 93.7674 37.5545 93.1944 36.9925C92.6412 36.4305 91.8212 36.1495 90.7346 36.1495C90.1221 36.1495 89.4898 36.1595 88.8378 36.1796C88.1858 36.1996 87.5635 36.2197 86.9707 36.2398C86.378 36.2599 85.8643 36.29 85.4296 36.3301V33.8011C85.8643 33.7609 86.3187 33.7308 86.7929 33.7108C87.2869 33.6706 87.7907 33.6505 88.3044 33.6505C88.8181 33.6305 89.312 33.6204 89.7862 33.6204C91.4063 33.6204 92.7301 33.8211 93.7575 34.2226C94.7849 34.6039 95.5455 35.2362 96.0395 36.1194C96.5334 37.0025 96.7804 38.1968 96.7804 39.7021V49.8785H94.528ZM89.3417 50.3C88.1562 50.3 87.1288 50.0993 86.2595 49.6978C85.4099 49.2763 84.748 48.6742 84.2738 47.8914C83.8194 47.1086 83.5922 46.1652 83.5922 45.0613C83.5922 43.9172 83.8392 42.9638 84.3331 42.2011C84.8468 41.4384 85.5877 40.8663 86.5558 40.4849C87.524 40.0835 88.6897 39.8828 90.0529 39.8828H94.3502V42.0505H89.9344C88.7884 42.0505 87.9092 42.3315 87.2967 42.8935C86.6842 43.4556 86.378 44.1781 86.378 45.0613C86.378 45.9444 86.6842 46.657 87.2967 47.1989C87.9092 47.7409 88.7884 48.0118 89.9344 48.0118C90.6061 48.0118 91.2483 47.8914 91.8607 47.6505C92.4732 47.3896 92.9771 46.9681 93.3722 46.386C93.7871 45.7839 94.0143 44.9609 94.0538 43.9172L94.8244 45.0613C94.7256 46.2054 94.449 47.1688 93.9946 47.9516C93.5599 48.7143 92.9474 49.2964 92.1571 49.6978C91.3866 50.0993 90.4481 50.3 89.3417 50.3Z" fill="white"/>
<path d="M108.167 50.0591C106.981 50.0591 105.954 49.8885 105.084 49.5473C104.235 49.2061 103.573 48.624 103.099 47.8011C102.644 46.9581 102.417 45.824 102.417 44.3989V28.9237H105.144V44.7602C105.144 45.6233 105.371 46.2957 105.825 46.7774C106.299 47.2391 106.961 47.4699 107.811 47.4699H110.597V50.0591H108.167ZM99.6906 35.9688V33.8011H110.597V35.9688H99.6906Z" fill="white"/>
<path d="M120.785 50.0591C119.6 50.0591 118.572 49.8885 117.703 49.5473C116.853 49.2061 116.192 48.624 115.717 47.8011C115.263 46.9581 115.036 45.824 115.036 44.3989V28.9237H117.762V44.7602C117.762 45.6233 117.99 46.2957 118.444 46.7774C118.918 47.2391 119.58 47.4699 120.43 47.4699H123.215V50.0591H120.785ZM112.309 35.9688V33.8011H123.215V35.9688H112.309Z" fill="white"/>
<path d="M133.851 50.4204C132.468 50.4204 131.273 50.1796 130.265 49.6978C129.258 49.2161 128.438 48.5839 127.805 47.8011C127.173 46.9982 126.699 46.105 126.383 45.1215C126.086 44.138 125.938 43.1344 125.938 42.1108V41.5688C125.938 40.5251 126.086 39.5115 126.383 38.528C126.699 37.5444 127.173 36.6613 127.805 35.8785C128.438 35.0756 129.238 34.4434 130.206 33.9817C131.194 33.5 132.35 33.2591 133.673 33.2591C135.392 33.2591 136.805 33.6405 137.911 34.4032C139.038 35.1459 139.867 36.1093 140.401 37.2935C140.954 38.4778 141.231 39.7423 141.231 41.0871V42.3817H127.183V40.214H139.156L138.504 41.3882C138.504 40.2441 138.326 39.2606 137.971 38.4376C137.615 37.5946 137.082 36.9423 136.37 36.4806C135.659 36.019 134.76 35.7882 133.673 35.7882C132.547 35.7882 131.609 36.0491 130.858 36.571C130.127 37.0928 129.574 37.8054 129.198 38.7086C128.843 39.6118 128.665 40.6556 128.665 41.8398C128.665 42.9839 128.843 44.0176 129.198 44.9409C129.574 45.8441 130.147 46.5667 130.917 47.1086C131.688 47.6305 132.666 47.8914 133.851 47.8914C135.096 47.8914 136.104 47.6104 136.874 47.0484C137.664 46.4864 138.139 45.834 138.297 45.0914H140.964C140.747 46.1953 140.312 47.1487 139.66 47.9516C139.008 48.7545 138.188 49.3667 137.2 49.7882C136.212 50.2097 135.096 50.4204 133.851 50.4204Z" fill="white"/>
<path d="M145.27 49.8785V33.8011H147.523V40.4247H147.404C147.404 38.0763 147.908 36.3602 148.915 35.2763C149.943 34.1724 151.474 33.6204 153.509 33.6204H154.043V36.2097H153.035C151.454 36.2097 150.239 36.6412 149.39 37.5043C148.54 38.3473 148.115 39.5717 148.115 41.1774V49.8785H145.27Z" fill="white"/>
</svg>
