<svg width="150" height="150" viewBox="0 0 150 150" fill="none" xmlns="http://www.w3.org/2000/svg">
<rect width="150" height="150" rx="75" fill="white"/>
<g clip-path="url(#clip0_4_192)">
<path d="M111.219 31.2883L104.848 34.6166C96.325 28.3834 86.0445 25 75.3631 25C62.0076 25 49.4516 30.201 40.0076 39.6445C30.5639 49.0885 25.3631 61.6445 25.3631 75C25.3631 88.3555 30.5641 100.912 40.0076 110.355C49.4516 119.799 62.0076 125 75.3631 125C78.7568 125 81.508 122.249 81.508 118.855C81.508 115.461 78.7568 112.71 75.3631 112.71C54.5697 112.71 37.6529 95.7934 37.6529 75C37.6529 54.2066 54.5697 37.2898 75.3631 37.2898C81.2633 37.2898 87.001 38.6582 92.1742 41.2367L87.9119 43.4631C83.4356 45.8014 83.1693 52.1084 87.4326 54.8156L109.628 68.9098C113.89 71.6166 119.485 68.6943 119.699 63.6492L120.811 37.3803C121.025 32.3348 115.696 28.95 111.219 31.2883Z" fill="#B3E59F"/>
<path d="M107.568 36.4691L117.388 31.3393C115.579 30.3527 113.306 30.198 111.219 31.2883L104.848 34.6166C105.772 35.2035 106.68 35.8199 107.568 36.4691Z" fill="#95D6A4"/>
<path d="M46.2742 110.355C36.8305 100.912 31.6297 88.3555 31.6297 75C31.6297 61.6445 36.8307 49.0885 46.2742 39.6445C54.9777 30.9412 66.3254 25.8453 78.5055 25.099C77.4627 25.0342 76.4149 25 75.3631 25C62.0076 25 49.4516 30.201 40.0076 39.6445C30.5639 49.0885 25.3631 61.6445 25.3631 75C25.3631 88.3555 30.5641 100.912 40.0076 110.355C49.4516 119.799 62.0076 125 75.3631 125C75.9213 125 76.4613 124.924 76.9754 124.785C65.377 123.721 54.6123 118.693 46.2742 110.355Z" fill="#95D6A4"/>
<path d="M115.894 68.91L93.6992 54.8158C89.4359 52.1086 89.7021 45.8016 94.1785 43.4633L95.3164 42.8689C96.6031 42.1969 96.509 40.3109 95.1539 39.7906C90.8812 38.1498 86.3064 37.29 81.6297 37.29C80.5744 37.29 79.5297 37.3359 78.4961 37.4213C83.2879 37.8176 87.9219 39.1174 92.1744 41.2369L87.9121 43.4633C83.4357 45.8016 83.1695 52.1086 87.4328 54.8158L109.628 68.91C111.794 70.2854 114.302 70.2053 116.275 69.1342C116.147 69.0641 116.02 68.9898 115.894 68.91Z" fill="#95D6A4"/>
<path d="M87.3899 95.8241C87.3807 95.8241 87.3719 95.8241 87.3629 95.8241C85.666 95.8094 84.3022 94.4221 84.317 92.7252C84.3305 91.1536 84.3443 89.4106 84.3576 87.5934H73.5053C72.4184 87.5934 71.4121 87.019 70.8596 86.0831C70.3068 85.1469 70.29 83.9887 70.8152 83.037C73.0217 79.0375 80.344 65.8372 81.926 63.8961C83.3668 62.1282 85.3254 61.4137 87.1658 61.9829C89.0211 62.5575 90.3383 64.3469 90.5213 66.542C90.6043 67.5374 90.5838 74.7413 90.5445 81.4485H91.0178C92.7147 81.4485 94.0902 82.8241 94.0902 84.521C94.0902 86.2178 92.7147 87.5934 91.0178 87.5934H90.5035C90.4861 89.9286 90.4703 91.8122 90.4619 92.7782C90.4471 94.4659 89.074 95.8241 87.3899 95.8241ZM78.726 81.4485H84.3982C84.4199 77.7088 84.4346 74.1034 84.4348 71.4235C82.9184 74.0106 80.8479 77.6526 78.726 81.4485Z" fill="#E27A66"/>
<path d="M58.2221 96.7806C52.8715 96.7806 52.4715 96.647 52.0541 96.508C51.0391 96.1697 50.2803 95.4011 49.9723 94.3994C49.4467 92.6906 50.2354 91.6578 51.9633 89.3953C53.3799 87.5406 56.0164 84.0881 60.4348 77.7752C61.7148 75.9461 62.5404 74.3158 62.8906 72.9261L62.9789 72.2355C62.8902 70.0728 61.1029 68.3406 58.919 68.3406C56.9813 68.3406 55.3045 69.7168 54.932 71.6129C54.6051 73.2779 52.9897 74.3625 51.325 74.0357C49.6598 73.7088 48.5752 72.0939 48.9022 70.4287C49.8391 65.6582 54.0518 62.1957 58.919 62.1957C64.5479 62.1957 69.1274 66.7752 69.1274 72.4041C69.1129 72.8552 68.9912 73.7316 68.9102 74.1767C68.4027 76.3654 67.2449 78.7617 65.4695 81.2986C62.4832 85.5654 60.2945 88.5508 58.7387 90.6281C61.2463 90.6244 64.3117 90.6008 67.1984 90.5644C68.8883 90.548 70.2879 91.9013 70.3094 93.598C70.3307 95.2947 68.9725 96.6875 67.2758 96.709C63.2652 96.7595 60.3514 96.7806 58.2221 96.7806Z" fill="#E27A66"/>
<path d="M74.0379 86.083C73.4852 85.1469 73.4684 83.9887 73.9936 83.0369C76.2 79.0375 83.5223 65.8371 85.1043 63.8961C85.8016 63.0404 86.6207 62.4342 87.4885 62.0981C87.3826 62.0557 87.2752 62.0168 87.1654 61.9828C85.3252 61.4135 83.3664 62.1281 81.9256 63.8961C80.3436 65.8371 73.0215 79.0373 70.8149 83.0369C70.2899 83.9887 70.3066 85.1471 70.8592 86.083C71.4119 87.0192 72.418 87.5934 73.5049 87.5934H76.6836C75.5969 87.5934 74.5906 87.019 74.0379 86.083Z" fill="#DD636E"/>
<path d="M87.4955 92.7252C87.509 91.1535 87.5229 89.4106 87.5361 87.5934H84.3574C84.3441 89.4106 84.3303 91.1535 84.3168 92.7252C84.302 94.4221 85.6658 95.8094 87.3627 95.824H87.3897C87.9713 95.824 88.5139 95.6592 88.9781 95.3776C88.0826 94.834 87.4857 93.8489 87.4955 92.7252Z" fill="#DD636E"/>
<path d="M53.5055 73.6465C52.4338 72.9972 51.8252 71.7299 52.0807 70.4287C52.9143 66.1842 56.3418 62.9775 60.5154 62.3215C59.9949 62.2394 59.4619 62.1957 58.9188 62.1957C54.0516 62.1957 49.8391 65.6582 48.902 70.4287C48.575 72.0937 49.6596 73.7086 51.3248 74.0357C52.1059 74.1892 52.8742 74.0289 53.5055 73.6465Z" fill="#DD636E"/>
<path d="M55.2328 96.5082C54.2178 96.1699 53.459 95.4014 53.151 94.3996C52.6254 92.6908 53.4141 91.658 55.142 89.3955C56.5586 87.5408 59.1951 84.0883 63.6135 77.7754C64.8936 75.9463 65.7191 74.316 66.0693 72.9264L66.1576 72.2357C66.069 70.073 64.2816 68.3408 62.0977 68.3408C61.5379 68.3408 61.0014 68.4588 60.5104 68.6678C61.9129 69.2674 62.9131 70.6322 62.9789 72.2355L62.8906 72.9262C62.5406 74.3158 61.715 75.9461 60.4348 77.7752C56.0164 84.0881 53.3799 87.5404 51.9633 89.3953C50.2352 91.658 49.4465 92.6906 49.9723 94.3994C50.2803 95.4012 51.0393 96.1697 52.0541 96.508C52.4715 96.6471 52.8715 96.7807 58.2221 96.7807C58.7447 96.7807 59.3154 96.7793 59.9375 96.7766C55.9719 96.7539 55.6082 96.6334 55.2328 96.5082Z" fill="#DD636E"/>
<path d="M109.541 124.838C109.135 124.838 108.721 124.755 108.326 124.581C106.796 123.909 106.101 122.124 106.774 120.595L116.978 97.3808H106.508C104.837 97.3808 103.483 96.0265 103.483 94.3558C103.483 92.6851 104.837 91.3308 106.508 91.3308H121.612C122.634 91.3308 123.587 91.8466 124.145 92.7023C124.704 93.558 124.792 94.6376 124.381 95.573L112.312 123.029C111.814 124.162 110.705 124.837 109.541 124.838Z" fill="#90D8F9"/>
<path d="M109.323 97.3807H106.508C104.836 97.3807 103.483 96.0276 103.483 94.3557C103.483 92.686 104.836 91.3307 106.508 91.3307H109.323C107.653 91.3307 106.298 92.686 106.298 94.3557C106.298 96.0276 107.653 97.3807 109.323 97.3807Z" fill="#80B4FB"/>
<path d="M110.95 124.488C110.519 124.716 110.033 124.839 109.541 124.839C109.133 124.839 108.72 124.757 108.325 124.581C106.796 123.91 106.1 122.125 106.772 120.596L116.976 97.3807H119.794L109.589 120.596C108.946 122.06 109.555 123.758 110.95 124.488Z" fill="#80B4FB"/>
<path d="M88.8535 112.733C88.6311 112.733 88.4053 112.684 88.1922 112.58C87.4434 112.214 87.133 111.31 87.499 110.561L104.935 74.8845C105.301 74.1355 106.205 73.8251 106.954 74.1914C107.702 74.5574 108.013 75.4609 107.647 76.2097L90.2106 111.886C89.9486 112.422 89.4119 112.733 88.8535 112.733Z" fill="#868086"/>
</g>
<defs>
<clipPath id="clip0_4_192">
<rect width="100" height="100" fill="white" transform="translate(25 25)"/>
</clipPath>
</defs>
</svg>
